<mxfile host="app.diagrams.net" modified="2021-09-17T21:02:31.260Z" agent="5.0 (Windows NT 10.0; Win64; x64) AppleWebKit/537.36 (KHTML, like Gecko) Chrome/93.0.4577.82 Safari/537.36" etag="hOGDf4kUDAN7jJncWvlU" version="15.2.7" type="github" pages="2">
  <diagram id="C5RBs43oDa-KdzZeNtuy" name="main">
    <mxGraphModel dx="1483" dy="827" grid="1" gridSize="10" guides="1" tooltips="1" connect="1" arrows="1" fold="1" page="1" pageScale="1" pageWidth="1100" pageHeight="850" math="0" shadow="0">
      <root>
        <mxCell id="WIyWlLk6GJQsqaUBKTNV-0" />
        <mxCell id="WIyWlLk6GJQsqaUBKTNV-1" parent="WIyWlLk6GJQsqaUBKTNV-0" />
        <mxCell id="4daw_Zc8QBf4AUVLITYe-2" style="edgeStyle=orthogonalEdgeStyle;rounded=0;orthogonalLoop=1;jettySize=auto;html=1;exitX=1;exitY=0.5;exitDx=0;exitDy=0;entryX=0;entryY=0.5;entryDx=0;entryDy=0;" parent="WIyWlLk6GJQsqaUBKTNV-1" source="4daw_Zc8QBf4AUVLITYe-0" target="4daw_Zc8QBf4AUVLITYe-3" edge="1">
          <mxGeometry relative="1" as="geometry">
            <mxPoint x="220" y="90" as="targetPoint" />
          </mxGeometry>
        </mxCell>
        <mxCell id="4daw_Zc8QBf4AUVLITYe-0" value="main" style="ellipse;whiteSpace=wrap;html=1;fillColor=#fff2cc;strokeColor=#d6b656;" parent="WIyWlLk6GJQsqaUBKTNV-1" vertex="1">
          <mxGeometry x="60" y="50" width="120" height="80" as="geometry" />
        </mxCell>
        <mxCell id="4daw_Zc8QBf4AUVLITYe-5" style="edgeStyle=orthogonalEdgeStyle;rounded=0;orthogonalLoop=1;jettySize=auto;html=1;exitX=1;exitY=0.5;exitDx=0;exitDy=0;entryX=0;entryY=0.5;entryDx=0;entryDy=0;" parent="WIyWlLk6GJQsqaUBKTNV-1" source="4daw_Zc8QBf4AUVLITYe-3" target="4daw_Zc8QBf4AUVLITYe-4" edge="1">
          <mxGeometry relative="1" as="geometry" />
        </mxCell>
        <mxCell id="4daw_Zc8QBf4AUVLITYe-3" value="Output the greeting to user." style="shape=parallelogram;perimeter=parallelogramPerimeter;whiteSpace=wrap;html=1;fixedSize=1;fillColor=#f8cecc;strokeColor=#b85450;" parent="WIyWlLk6GJQsqaUBKTNV-1" vertex="1">
          <mxGeometry x="210" y="60" width="120" height="60" as="geometry" />
        </mxCell>
        <mxCell id="4daw_Zc8QBf4AUVLITYe-7" style="edgeStyle=orthogonalEdgeStyle;rounded=0;orthogonalLoop=1;jettySize=auto;html=1;exitX=1;exitY=0.5;exitDx=0;exitDy=0;entryX=0;entryY=0.5;entryDx=0;entryDy=0;" parent="WIyWlLk6GJQsqaUBKTNV-1" source="4daw_Zc8QBf4AUVLITYe-4" target="4daw_Zc8QBf4AUVLITYe-6" edge="1">
          <mxGeometry relative="1" as="geometry" />
        </mxCell>
        <mxCell id="4daw_Zc8QBf4AUVLITYe-4" value="User inputs whether they&#39;d like to encrypt or decrypt to Tavin." style="shape=parallelogram;perimeter=parallelogramPerimeter;whiteSpace=wrap;html=1;fixedSize=1;fillColor=#f8cecc;strokeColor=#b85450;" parent="WIyWlLk6GJQsqaUBKTNV-1" vertex="1">
          <mxGeometry x="360" y="60" width="120" height="60" as="geometry" />
        </mxCell>
        <mxCell id="4daw_Zc8QBf4AUVLITYe-9" style="edgeStyle=orthogonalEdgeStyle;rounded=0;orthogonalLoop=1;jettySize=auto;html=1;exitX=1;exitY=0.5;exitDx=0;exitDy=0;entryX=0;entryY=0.5;entryDx=0;entryDy=0;" parent="WIyWlLk6GJQsqaUBKTNV-1" source="4daw_Zc8QBf4AUVLITYe-6" target="4daw_Zc8QBf4AUVLITYe-19" edge="1">
          <mxGeometry relative="1" as="geometry">
            <mxPoint x="660" y="90" as="targetPoint" />
          </mxGeometry>
        </mxCell>
        <mxCell id="4daw_Zc8QBf4AUVLITYe-6" value="User inputs on if they&#39;d like to double translate to Tavin." style="shape=parallelogram;perimeter=parallelogramPerimeter;whiteSpace=wrap;html=1;fixedSize=1;fillColor=#f8cecc;strokeColor=#b85450;" parent="WIyWlLk6GJQsqaUBKTNV-1" vertex="1">
          <mxGeometry x="510" y="60" width="120" height="60" as="geometry" />
        </mxCell>
        <mxCell id="4daw_Zc8QBf4AUVLITYe-17" style="edgeStyle=orthogonalEdgeStyle;rounded=0;orthogonalLoop=1;jettySize=auto;html=1;exitX=1;exitY=0.5;exitDx=0;exitDy=0;entryX=0;entryY=0.5;entryDx=0;entryDy=0;" parent="WIyWlLk6GJQsqaUBKTNV-1" source="4daw_Zc8QBf4AUVLITYe-19" target="4daw_Zc8QBf4AUVLITYe-16" edge="1">
          <mxGeometry relative="1" as="geometry">
            <mxPoint x="740" y="90" as="sourcePoint" />
          </mxGeometry>
        </mxCell>
        <mxCell id="XRVL9fQ062WbQzTsihEv-4" style="edgeStyle=orthogonalEdgeStyle;rounded=0;orthogonalLoop=1;jettySize=auto;html=1;exitX=1;exitY=0.5;exitDx=0;exitDy=0;entryX=0;entryY=0.5;entryDx=0;entryDy=0;fontSize=11;" parent="WIyWlLk6GJQsqaUBKTNV-1" source="4daw_Zc8QBf4AUVLITYe-16" target="PNmqG5ZM97pKphXlf5HH-1" edge="1">
          <mxGeometry relative="1" as="geometry" />
        </mxCell>
        <mxCell id="4daw_Zc8QBf4AUVLITYe-16" value="User inputs how many times they want the translator to loop over (if any, default value 1)." style="shape=parallelogram;perimeter=parallelogramPerimeter;whiteSpace=wrap;html=1;fixedSize=1;fillColor=#f8cecc;strokeColor=#b85450;fontSize=11;" parent="WIyWlLk6GJQsqaUBKTNV-1" vertex="1">
          <mxGeometry x="770" y="60" width="120" height="60" as="geometry" />
        </mxCell>
        <mxCell id="4daw_Zc8QBf4AUVLITYe-18" value="No" style="text;html=1;align=center;verticalAlign=middle;resizable=0;points=[];autosize=1;strokeColor=none;fontStyle=1" parent="WIyWlLk6GJQsqaUBKTNV-1" vertex="1">
          <mxGeometry x="740" y="70" width="30" height="20" as="geometry" />
        </mxCell>
        <mxCell id="XRVL9fQ062WbQzTsihEv-6" style="edgeStyle=orthogonalEdgeStyle;rounded=0;orthogonalLoop=1;jettySize=auto;html=1;exitX=0.5;exitY=0;exitDx=0;exitDy=0;entryX=0.5;entryY=0;entryDx=0;entryDy=0;fontSize=11;" parent="WIyWlLk6GJQsqaUBKTNV-1" source="4daw_Zc8QBf4AUVLITYe-19" target="PNmqG5ZM97pKphXlf5HH-1" edge="1">
          <mxGeometry relative="1" as="geometry" />
        </mxCell>
        <mxCell id="4daw_Zc8QBf4AUVLITYe-19" value="&lt;span&gt;Does user want to double translate to Tavin?&lt;/span&gt;" style="rhombus;whiteSpace=wrap;html=1;fillColor=#d5e8d4;strokeColor=#82b366;" parent="WIyWlLk6GJQsqaUBKTNV-1" vertex="1">
          <mxGeometry x="660" y="50" width="80" height="80" as="geometry" />
        </mxCell>
        <mxCell id="XRVL9fQ062WbQzTsihEv-5" style="edgeStyle=orthogonalEdgeStyle;rounded=0;orthogonalLoop=1;jettySize=auto;html=1;exitX=0;exitY=0.5;exitDx=0;exitDy=0;entryX=1;entryY=0.5;entryDx=0;entryDy=0;fontSize=11;" parent="WIyWlLk6GJQsqaUBKTNV-1" source="4daw_Zc8QBf4AUVLITYe-21" target="DpG_OZYvt2ZYFA7lxAtb-0" edge="1">
          <mxGeometry relative="1" as="geometry" />
        </mxCell>
        <mxCell id="4daw_Zc8QBf4AUVLITYe-21" value="User inputs what they want to translate." style="shape=parallelogram;perimeter=parallelogramPerimeter;whiteSpace=wrap;html=1;fixedSize=1;fillColor=#f8cecc;strokeColor=#b85450;" parent="WIyWlLk6GJQsqaUBKTNV-1" vertex="1">
          <mxGeometry x="790" y="180" width="120" height="60" as="geometry" />
        </mxCell>
        <mxCell id="4daw_Zc8QBf4AUVLITYe-24" value="Yes" style="text;html=1;align=center;verticalAlign=middle;resizable=0;points=[];autosize=1;strokeColor=none;fontStyle=1" parent="WIyWlLk6GJQsqaUBKTNV-1" vertex="1">
          <mxGeometry x="660" y="30" width="40" height="20" as="geometry" />
        </mxCell>
        <mxCell id="PNmqG5ZM97pKphXlf5HH-7" style="edgeStyle=orthogonalEdgeStyle;rounded=0;orthogonalLoop=1;jettySize=auto;html=1;exitX=0;exitY=0.5;exitDx=0;exitDy=0;entryX=1;entryY=0.5;entryDx=0;entryDy=0;" parent="WIyWlLk6GJQsqaUBKTNV-1" source="DpG_OZYvt2ZYFA7lxAtb-0" target="PNmqG5ZM97pKphXlf5HH-6" edge="1">
          <mxGeometry relative="1" as="geometry" />
        </mxCell>
        <mxCell id="DpG_OZYvt2ZYFA7lxAtb-0" value="&lt;span style=&quot;font-size: 8px;&quot;&gt;Calls the tavin_translator_core function with all user input.&lt;/span&gt;" style="shape=offPageConnector;whiteSpace=wrap;html=1;fillColor=#ffe6cc;strokeColor=#d79b00;fontSize=8;" parent="WIyWlLk6GJQsqaUBKTNV-1" vertex="1">
          <mxGeometry x="680" y="170" width="80" height="80" as="geometry" />
        </mxCell>
        <mxCell id="PNmqG5ZM97pKphXlf5HH-4" style="edgeStyle=orthogonalEdgeStyle;rounded=0;orthogonalLoop=1;jettySize=auto;html=1;exitX=0;exitY=0.5;exitDx=0;exitDy=0;entryX=1;entryY=0.5;entryDx=0;entryDy=0;" parent="WIyWlLk6GJQsqaUBKTNV-1" source="PNmqG5ZM97pKphXlf5HH-0" target="4daw_Zc8QBf4AUVLITYe-21" edge="1">
          <mxGeometry relative="1" as="geometry">
            <mxPoint x="920" y="240" as="targetPoint" />
          </mxGeometry>
        </mxCell>
        <mxCell id="PNmqG5ZM97pKphXlf5HH-18" style="edgeStyle=orthogonalEdgeStyle;rounded=0;orthogonalLoop=1;jettySize=auto;html=1;exitX=0.5;exitY=0;exitDx=0;exitDy=0;entryX=0.5;entryY=0;entryDx=0;entryDy=0;fontSize=12;" parent="WIyWlLk6GJQsqaUBKTNV-1" source="PNmqG5ZM97pKphXlf5HH-0" target="PNmqG5ZM97pKphXlf5HH-16" edge="1">
          <mxGeometry relative="1" as="geometry" />
        </mxCell>
        <mxCell id="PNmqG5ZM97pKphXlf5HH-0" value="Is the output string variable empty?" style="rhombus;whiteSpace=wrap;html=1;fillColor=#d5e8d4;strokeColor=#82b366;" parent="WIyWlLk6GJQsqaUBKTNV-1" vertex="1">
          <mxGeometry x="940" y="170" width="80" height="80" as="geometry" />
        </mxCell>
        <mxCell id="XRVL9fQ062WbQzTsihEv-3" style="edgeStyle=orthogonalEdgeStyle;rounded=0;orthogonalLoop=1;jettySize=auto;html=1;exitX=1;exitY=0.5;exitDx=0;exitDy=0;entryX=1;entryY=0.5;entryDx=0;entryDy=0;fontSize=11;" parent="WIyWlLk6GJQsqaUBKTNV-1" source="PNmqG5ZM97pKphXlf5HH-1" target="PNmqG5ZM97pKphXlf5HH-0" edge="1">
          <mxGeometry relative="1" as="geometry" />
        </mxCell>
        <mxCell id="PNmqG5ZM97pKphXlf5HH-1" value="Set variable to hold output." style="rounded=0;whiteSpace=wrap;html=1;fillColor=#dae8fc;strokeColor=#6c8ebf;" parent="WIyWlLk6GJQsqaUBKTNV-1" vertex="1">
          <mxGeometry x="920" y="60" width="120" height="60" as="geometry" />
        </mxCell>
        <mxCell id="PNmqG5ZM97pKphXlf5HH-5" value="&lt;b&gt;Yes&lt;/b&gt;" style="text;html=1;align=center;verticalAlign=middle;resizable=0;points=[];autosize=1;strokeColor=none;" parent="WIyWlLk6GJQsqaUBKTNV-1" vertex="1">
          <mxGeometry x="910" y="190" width="40" height="20" as="geometry" />
        </mxCell>
        <mxCell id="PNmqG5ZM97pKphXlf5HH-9" style="edgeStyle=orthogonalEdgeStyle;rounded=0;orthogonalLoop=1;jettySize=auto;html=1;exitX=0;exitY=0.5;exitDx=0;exitDy=0;entryX=1;entryY=0.5;entryDx=0;entryDy=0;fontSize=10;" parent="WIyWlLk6GJQsqaUBKTNV-1" source="PNmqG5ZM97pKphXlf5HH-6" target="PNmqG5ZM97pKphXlf5HH-8" edge="1">
          <mxGeometry relative="1" as="geometry" />
        </mxCell>
        <mxCell id="PNmqG5ZM97pKphXlf5HH-6" value="Is the return value from tavin_translator_core valid?" style="rhombus;whiteSpace=wrap;html=1;fillColor=#d5e8d4;strokeColor=#82b366;fontSize=9;" parent="WIyWlLk6GJQsqaUBKTNV-1" vertex="1">
          <mxGeometry x="560" y="170" width="80" height="80" as="geometry" />
        </mxCell>
        <mxCell id="XRVL9fQ062WbQzTsihEv-7" style="edgeStyle=orthogonalEdgeStyle;rounded=0;orthogonalLoop=1;jettySize=auto;html=1;exitX=0.5;exitY=1;exitDx=0;exitDy=0;entryX=0.5;entryY=1;entryDx=0;entryDy=0;fontSize=11;" parent="WIyWlLk6GJQsqaUBKTNV-1" source="PNmqG5ZM97pKphXlf5HH-8" target="PNmqG5ZM97pKphXlf5HH-0" edge="1">
          <mxGeometry relative="1" as="geometry" />
        </mxCell>
        <mxCell id="PNmqG5ZM97pKphXlf5HH-8" value="&lt;font style=&quot;font-size: 10px&quot;&gt;Set output string variable to the translated input returned by tavin_translated_core.&lt;/font&gt;" style="rounded=0;whiteSpace=wrap;html=1;fontSize=10;fillColor=#dae8fc;strokeColor=#6c8ebf;" parent="WIyWlLk6GJQsqaUBKTNV-1" vertex="1">
          <mxGeometry x="400" y="180" width="120" height="60" as="geometry" />
        </mxCell>
        <mxCell id="PNmqG5ZM97pKphXlf5HH-11" value="&lt;font style=&quot;font-size: 12px&quot;&gt;&lt;b&gt;Yes&lt;/b&gt;&lt;/font&gt;" style="text;html=1;align=center;verticalAlign=middle;resizable=0;points=[];autosize=1;strokeColor=none;fontSize=10;" parent="WIyWlLk6GJQsqaUBKTNV-1" vertex="1">
          <mxGeometry x="520" y="190" width="40" height="20" as="geometry" />
        </mxCell>
        <mxCell id="PNmqG5ZM97pKphXlf5HH-12" value="No" style="text;html=1;align=center;verticalAlign=middle;resizable=0;points=[];autosize=1;strokeColor=none;fontSize=9;fontStyle=1" parent="WIyWlLk6GJQsqaUBKTNV-1" vertex="1">
          <mxGeometry x="570" y="240" width="30" height="20" as="geometry" />
        </mxCell>
        <mxCell id="PNmqG5ZM97pKphXlf5HH-13" value="" style="endArrow=none;html=1;fontSize=9;" parent="WIyWlLk6GJQsqaUBKTNV-1" edge="1">
          <mxGeometry width="50" height="50" relative="1" as="geometry">
            <mxPoint x="600" y="260" as="sourcePoint" />
            <mxPoint x="600" y="250" as="targetPoint" />
          </mxGeometry>
        </mxCell>
        <mxCell id="PNmqG5ZM97pKphXlf5HH-21" style="edgeStyle=orthogonalEdgeStyle;rounded=0;orthogonalLoop=1;jettySize=auto;html=1;exitX=0;exitY=0.5;exitDx=0;exitDy=0;entryX=1;entryY=0.5;entryDx=0;entryDy=0;fontSize=12;" parent="WIyWlLk6GJQsqaUBKTNV-1" source="PNmqG5ZM97pKphXlf5HH-16" target="PNmqG5ZM97pKphXlf5HH-20" edge="1">
          <mxGeometry relative="1" as="geometry" />
        </mxCell>
        <mxCell id="PNmqG5ZM97pKphXlf5HH-16" value="Output the output string variable to user." style="shape=parallelogram;perimeter=parallelogramPerimeter;whiteSpace=wrap;html=1;fixedSize=1;fontSize=12;fillColor=#f8cecc;strokeColor=#b85450;" parent="WIyWlLk6GJQsqaUBKTNV-1" vertex="1">
          <mxGeometry x="250" y="180" width="120" height="60" as="geometry" />
        </mxCell>
        <mxCell id="PNmqG5ZM97pKphXlf5HH-19" value="&lt;b&gt;No&lt;/b&gt;" style="text;html=1;align=center;verticalAlign=middle;resizable=0;points=[];autosize=1;strokeColor=none;fontSize=12;" parent="WIyWlLk6GJQsqaUBKTNV-1" vertex="1">
          <mxGeometry x="950" y="150" width="30" height="20" as="geometry" />
        </mxCell>
        <mxCell id="PNmqG5ZM97pKphXlf5HH-20" value="Stop" style="ellipse;whiteSpace=wrap;html=1;fontSize=12;fillColor=#fff2cc;strokeColor=#d6b656;" parent="WIyWlLk6GJQsqaUBKTNV-1" vertex="1">
          <mxGeometry x="100" y="170" width="120" height="80" as="geometry" />
        </mxCell>
      </root>
    </mxGraphModel>
  </diagram>
  <diagram id="2IJrWwBBkddrAd-4rjUx" name="tavin_translator_core">
    <mxGraphModel dx="1483" dy="827" grid="1" gridSize="10" guides="1" tooltips="1" connect="1" arrows="1" fold="1" page="1" pageScale="1" pageWidth="1100" pageHeight="850" math="0" shadow="0">
      <root>
        <mxCell id="obPb8DVYNnawBPwpHqBk-0" />
        <mxCell id="obPb8DVYNnawBPwpHqBk-1" parent="obPb8DVYNnawBPwpHqBk-0" />
        <mxCell id="obPb8DVYNnawBPwpHqBk-2" style="edgeStyle=orthogonalEdgeStyle;rounded=0;orthogonalLoop=1;jettySize=auto;html=1;exitX=1;exitY=0.5;exitDx=0;exitDy=0;entryX=0;entryY=0.5;entryDx=0;entryDy=0;fontSize=11;" edge="1" parent="obPb8DVYNnawBPwpHqBk-1" source="obPb8DVYNnawBPwpHqBk-4" target="obPb8DVYNnawBPwpHqBk-7">
          <mxGeometry relative="1" as="geometry" />
        </mxCell>
        <mxCell id="obPb8DVYNnawBPwpHqBk-3" style="edgeStyle=orthogonalEdgeStyle;rounded=0;orthogonalLoop=1;jettySize=auto;html=1;exitX=0.5;exitY=0;exitDx=0;exitDy=0;entryX=0.5;entryY=0;entryDx=0;entryDy=0;fontSize=11;" edge="1" parent="obPb8DVYNnawBPwpHqBk-1" source="obPb8DVYNnawBPwpHqBk-4" target="obPb8DVYNnawBPwpHqBk-68">
          <mxGeometry relative="1" as="geometry">
            <mxPoint x="649" y="60" as="targetPoint" />
          </mxGeometry>
        </mxCell>
        <mxCell id="obPb8DVYNnawBPwpHqBk-4" value="Does user want to SINGLE decrypt to Tavin?" style="rhombus;whiteSpace=wrap;html=1;fillColor=#d5e8d4;strokeColor=#82b366;" vertex="1" parent="obPb8DVYNnawBPwpHqBk-1">
          <mxGeometry x="209" y="60" width="80" height="80" as="geometry" />
        </mxCell>
        <mxCell id="obPb8DVYNnawBPwpHqBk-5" style="edgeStyle=orthogonalEdgeStyle;rounded=0;orthogonalLoop=1;jettySize=auto;html=1;exitX=0.5;exitY=0;exitDx=0;exitDy=0;fontSize=11;" edge="1" parent="obPb8DVYNnawBPwpHqBk-1" source="obPb8DVYNnawBPwpHqBk-7">
          <mxGeometry relative="1" as="geometry">
            <mxPoint x="369" y="40" as="targetPoint" />
          </mxGeometry>
        </mxCell>
        <mxCell id="obPb8DVYNnawBPwpHqBk-6" style="edgeStyle=orthogonalEdgeStyle;rounded=0;orthogonalLoop=1;jettySize=auto;html=1;exitX=1;exitY=0.5;exitDx=0;exitDy=0;entryX=0;entryY=0.5;entryDx=0;entryDy=0;fontSize=9;" edge="1" parent="obPb8DVYNnawBPwpHqBk-1" source="obPb8DVYNnawBPwpHqBk-7" target="obPb8DVYNnawBPwpHqBk-71">
          <mxGeometry relative="1" as="geometry" />
        </mxCell>
        <mxCell id="obPb8DVYNnawBPwpHqBk-7" value="Does the input string contain any non-vowel letters or numbers?" style="rhombus;whiteSpace=wrap;html=1;fillColor=#d5e8d4;strokeColor=#82b366;fontSize=10;" vertex="1" parent="obPb8DVYNnawBPwpHqBk-1">
          <mxGeometry x="329" y="60" width="80" height="80" as="geometry" />
        </mxCell>
        <mxCell id="obPb8DVYNnawBPwpHqBk-8" value="Yes" style="text;html=1;align=center;verticalAlign=middle;resizable=0;points=[];autosize=1;strokeColor=none;fontSize=12;fontStyle=1" vertex="1" parent="obPb8DVYNnawBPwpHqBk-1">
          <mxGeometry x="284" y="80" width="40" height="20" as="geometry" />
        </mxCell>
        <mxCell id="obPb8DVYNnawBPwpHqBk-9" value="Yes" style="text;html=1;align=center;verticalAlign=middle;resizable=0;points=[];autosize=1;strokeColor=none;fontSize=12;fontStyle=1" vertex="1" parent="obPb8DVYNnawBPwpHqBk-1">
          <mxGeometry x="404" y="80" width="40" height="20" as="geometry" />
        </mxCell>
        <mxCell id="obPb8DVYNnawBPwpHqBk-10" value="No" style="text;html=1;align=center;verticalAlign=middle;resizable=0;points=[];autosize=1;strokeColor=none;fontSize=12;fontStyle=1" vertex="1" parent="obPb8DVYNnawBPwpHqBk-1">
          <mxGeometry x="254" y="40" width="30" height="20" as="geometry" />
        </mxCell>
        <mxCell id="obPb8DVYNnawBPwpHqBk-11" value="No" style="text;html=1;align=center;verticalAlign=middle;resizable=0;points=[];autosize=1;strokeColor=none;fontSize=12;fontStyle=1" vertex="1" parent="obPb8DVYNnawBPwpHqBk-1">
          <mxGeometry x="374" y="40" width="30" height="20" as="geometry" />
        </mxCell>
        <mxCell id="obPb8DVYNnawBPwpHqBk-12" style="edgeStyle=orthogonalEdgeStyle;rounded=0;orthogonalLoop=1;jettySize=auto;html=1;exitX=0.5;exitY=1;exitDx=0;exitDy=0;entryX=0.5;entryY=0;entryDx=0;entryDy=0;" edge="1" parent="obPb8DVYNnawBPwpHqBk-1" source="obPb8DVYNnawBPwpHqBk-13" target="obPb8DVYNnawBPwpHqBk-15">
          <mxGeometry relative="1" as="geometry" />
        </mxCell>
        <mxCell id="obPb8DVYNnawBPwpHqBk-13" value="word_index is equal to the FIRST index in word_index_seperator" style="rounded=0;whiteSpace=wrap;html=1;fontSize=11;fillColor=#dae8fc;strokeColor=#6c8ebf;" vertex="1" parent="obPb8DVYNnawBPwpHqBk-1">
          <mxGeometry x="889" y="70" width="120" height="60" as="geometry" />
        </mxCell>
        <mxCell id="obPb8DVYNnawBPwpHqBk-14" style="edgeStyle=orthogonalEdgeStyle;rounded=0;orthogonalLoop=1;jettySize=auto;html=1;exitX=0;exitY=0.5;exitDx=0;exitDy=0;entryX=1;entryY=0.5;entryDx=0;entryDy=0;fontSize=12;" edge="1" parent="obPb8DVYNnawBPwpHqBk-1" source="obPb8DVYNnawBPwpHqBk-15" target="obPb8DVYNnawBPwpHqBk-17">
          <mxGeometry relative="1" as="geometry" />
        </mxCell>
        <mxCell id="obPb8DVYNnawBPwpHqBk-15" value="Is word_index equal to the LAST index in word_index_seperator?" style="rhombus;whiteSpace=wrap;html=1;fontSize=8;fillColor=#d5e8d4;strokeColor=#82b366;fontStyle=0" vertex="1" parent="obPb8DVYNnawBPwpHqBk-1">
          <mxGeometry x="909" y="180" width="80" height="80" as="geometry" />
        </mxCell>
        <mxCell id="obPb8DVYNnawBPwpHqBk-16" style="edgeStyle=orthogonalEdgeStyle;rounded=0;orthogonalLoop=1;jettySize=auto;html=1;exitX=0;exitY=0.5;exitDx=0;exitDy=0;entryX=1;entryY=0.5;entryDx=0;entryDy=0;fontSize=8;" edge="1" parent="obPb8DVYNnawBPwpHqBk-1" source="obPb8DVYNnawBPwpHqBk-17" target="obPb8DVYNnawBPwpHqBk-19">
          <mxGeometry relative="1" as="geometry" />
        </mxCell>
        <mxCell id="obPb8DVYNnawBPwpHqBk-17" value="Create a variable to hold temp word with all special characters removed, the translated word, a list to hold the indexes of special characters in word, and a list of indexes of all capitalized letters in word." style="rounded=0;whiteSpace=wrap;html=1;fontSize=7;fillColor=#dae8fc;strokeColor=#6c8ebf;" vertex="1" parent="obPb8DVYNnawBPwpHqBk-1">
          <mxGeometry x="749" y="190" width="120" height="60" as="geometry" />
        </mxCell>
        <mxCell id="obPb8DVYNnawBPwpHqBk-18" style="edgeStyle=orthogonalEdgeStyle;rounded=0;orthogonalLoop=1;jettySize=auto;html=1;exitX=0;exitY=0.5;exitDx=0;exitDy=0;entryX=1;entryY=0.5;entryDx=0;entryDy=0;fontSize=8;" edge="1" parent="obPb8DVYNnawBPwpHqBk-1" source="obPb8DVYNnawBPwpHqBk-19" target="obPb8DVYNnawBPwpHqBk-22">
          <mxGeometry relative="1" as="geometry" />
        </mxCell>
        <mxCell id="obPb8DVYNnawBPwpHqBk-19" value="&lt;font style=&quot;font-size: 12px;&quot;&gt;char_index is equal to the FIRST index in word_index&lt;/font&gt;" style="rounded=0;whiteSpace=wrap;html=1;fontSize=12;fillColor=#dae8fc;strokeColor=#6c8ebf;" vertex="1" parent="obPb8DVYNnawBPwpHqBk-1">
          <mxGeometry x="589" y="190" width="120" height="60" as="geometry" />
        </mxCell>
        <mxCell id="obPb8DVYNnawBPwpHqBk-20" style="edgeStyle=orthogonalEdgeStyle;rounded=0;orthogonalLoop=1;jettySize=auto;html=1;exitX=0;exitY=0.5;exitDx=0;exitDy=0;entryX=1;entryY=0.5;entryDx=0;entryDy=0;fontSize=12;" edge="1" parent="obPb8DVYNnawBPwpHqBk-1" source="obPb8DVYNnawBPwpHqBk-22" target="obPb8DVYNnawBPwpHqBk-25">
          <mxGeometry relative="1" as="geometry" />
        </mxCell>
        <mxCell id="obPb8DVYNnawBPwpHqBk-21" style="edgeStyle=orthogonalEdgeStyle;rounded=0;orthogonalLoop=1;jettySize=auto;html=1;exitX=0.5;exitY=1;exitDx=0;exitDy=0;entryX=0.5;entryY=0;entryDx=0;entryDy=0;fontSize=12;" edge="1" parent="obPb8DVYNnawBPwpHqBk-1" source="obPb8DVYNnawBPwpHqBk-22" target="obPb8DVYNnawBPwpHqBk-39">
          <mxGeometry relative="1" as="geometry" />
        </mxCell>
        <mxCell id="obPb8DVYNnawBPwpHqBk-22" value="Is char_index equal to the LAST index in word_index?" style="rhombus;whiteSpace=wrap;html=1;fontSize=12;fillColor=#d5e8d4;strokeColor=#82b366;" vertex="1" parent="obPb8DVYNnawBPwpHqBk-1">
          <mxGeometry x="469" y="180" width="80" height="80" as="geometry" />
        </mxCell>
        <mxCell id="obPb8DVYNnawBPwpHqBk-23" style="edgeStyle=orthogonalEdgeStyle;rounded=0;orthogonalLoop=1;jettySize=auto;html=1;exitX=0;exitY=0.5;exitDx=0;exitDy=0;entryX=1;entryY=0.5;entryDx=0;entryDy=0;" edge="1" parent="obPb8DVYNnawBPwpHqBk-1" source="obPb8DVYNnawBPwpHqBk-25" target="obPb8DVYNnawBPwpHqBk-27">
          <mxGeometry relative="1" as="geometry" />
        </mxCell>
        <mxCell id="obPb8DVYNnawBPwpHqBk-24" style="edgeStyle=orthogonalEdgeStyle;rounded=0;orthogonalLoop=1;jettySize=auto;html=1;exitX=0.5;exitY=0;exitDx=0;exitDy=0;entryX=0.5;entryY=0;entryDx=0;entryDy=0;" edge="1" parent="obPb8DVYNnawBPwpHqBk-1" source="obPb8DVYNnawBPwpHqBk-25" target="obPb8DVYNnawBPwpHqBk-29">
          <mxGeometry relative="1" as="geometry" />
        </mxCell>
        <mxCell id="obPb8DVYNnawBPwpHqBk-25" value="Is the character in the char_index place of input string a special character? (apostrophe, at symbol, etc)" style="rhombus;whiteSpace=wrap;html=1;fontSize=9;fillColor=#d5e8d4;strokeColor=#82b366;" vertex="1" parent="obPb8DVYNnawBPwpHqBk-1">
          <mxGeometry x="349" y="180" width="80" height="80" as="geometry" />
        </mxCell>
        <mxCell id="obPb8DVYNnawBPwpHqBk-26" value="&lt;b&gt;No&lt;/b&gt;" style="text;html=1;align=center;verticalAlign=middle;resizable=0;points=[];autosize=1;strokeColor=none;fontSize=12;" vertex="1" parent="obPb8DVYNnawBPwpHqBk-1">
          <mxGeometry x="439" y="200" width="30" height="20" as="geometry" />
        </mxCell>
        <mxCell id="obPb8DVYNnawBPwpHqBk-27" value="Add character&#39;s index to the special character list." style="rounded=0;whiteSpace=wrap;html=1;fillColor=#dae8fc;strokeColor=#6c8ebf;" vertex="1" parent="obPb8DVYNnawBPwpHqBk-1">
          <mxGeometry x="189" y="190" width="120" height="60" as="geometry" />
        </mxCell>
        <mxCell id="obPb8DVYNnawBPwpHqBk-28" value="&lt;b&gt;Yes&lt;/b&gt;" style="text;html=1;align=center;verticalAlign=middle;resizable=0;points=[];autosize=1;strokeColor=none;" vertex="1" parent="obPb8DVYNnawBPwpHqBk-1">
          <mxGeometry x="309" y="200" width="40" height="20" as="geometry" />
        </mxCell>
        <mxCell id="obPb8DVYNnawBPwpHqBk-29" value="&lt;span style=&quot;font-size: 8px;&quot;&gt;Is the character in the char_index place of input string upper case? (apostrophe, at symbol, etc)&lt;/span&gt;" style="rhombus;whiteSpace=wrap;html=1;fillColor=#d5e8d4;strokeColor=#82b366;fontSize=8;" vertex="1" parent="obPb8DVYNnawBPwpHqBk-1">
          <mxGeometry x="69" y="180" width="80" height="80" as="geometry" />
        </mxCell>
        <mxCell id="obPb8DVYNnawBPwpHqBk-30" style="edgeStyle=orthogonalEdgeStyle;rounded=0;orthogonalLoop=1;jettySize=auto;html=1;exitX=1;exitY=0.5;exitDx=0;exitDy=0;entryX=0;entryY=0.5;entryDx=0;entryDy=0;fontSize=12;" edge="1" parent="obPb8DVYNnawBPwpHqBk-1" source="obPb8DVYNnawBPwpHqBk-31" target="obPb8DVYNnawBPwpHqBk-32">
          <mxGeometry relative="1" as="geometry" />
        </mxCell>
        <mxCell id="obPb8DVYNnawBPwpHqBk-31" value="Add character&#39;s index to the upper-case character list." style="rounded=0;whiteSpace=wrap;html=1;fillColor=#dae8fc;strokeColor=#6c8ebf;" vertex="1" parent="obPb8DVYNnawBPwpHqBk-1">
          <mxGeometry x="59" y="310" width="120" height="60" as="geometry" />
        </mxCell>
        <mxCell id="obPb8DVYNnawBPwpHqBk-32" value="Convert letter to lower case, and add character&#39;s index to the list of characters with special characters removed." style="rounded=0;whiteSpace=wrap;html=1;fillColor=#dae8fc;strokeColor=#6c8ebf;fontSize=10;" vertex="1" parent="obPb8DVYNnawBPwpHqBk-1">
          <mxGeometry x="219" y="310" width="120" height="60" as="geometry" />
        </mxCell>
        <mxCell id="obPb8DVYNnawBPwpHqBk-33" value="&lt;b&gt;No&lt;/b&gt;" style="text;html=1;align=center;verticalAlign=middle;resizable=0;points=[];autosize=1;strokeColor=none;" vertex="1" parent="obPb8DVYNnawBPwpHqBk-1">
          <mxGeometry x="359" y="160" width="30" height="20" as="geometry" />
        </mxCell>
        <mxCell id="obPb8DVYNnawBPwpHqBk-34" style="edgeStyle=orthogonalEdgeStyle;rounded=0;orthogonalLoop=1;jettySize=auto;html=1;exitX=1;exitY=0.5;exitDx=0;exitDy=0;entryX=0;entryY=0.5;entryDx=0;entryDy=0;fontSize=12;" edge="1" parent="obPb8DVYNnawBPwpHqBk-1" source="obPb8DVYNnawBPwpHqBk-35" target="obPb8DVYNnawBPwpHqBk-37">
          <mxGeometry relative="1" as="geometry" />
        </mxCell>
        <mxCell id="obPb8DVYNnawBPwpHqBk-35" value="&lt;font style=&quot;font-size: 12px&quot;&gt;Add character&#39;s index to temp word with special characters removed.&lt;/font&gt;" style="rounded=0;whiteSpace=wrap;html=1;fontSize=12;fillColor=#dae8fc;strokeColor=#6c8ebf;" vertex="1" parent="obPb8DVYNnawBPwpHqBk-1">
          <mxGeometry x="379" y="310" width="120" height="60" as="geometry" />
        </mxCell>
        <mxCell id="obPb8DVYNnawBPwpHqBk-36" value="&lt;b&gt;&lt;font style=&quot;font-size: 12px&quot;&gt;No&lt;/font&gt;&lt;/b&gt;" style="text;html=1;align=center;verticalAlign=middle;resizable=0;points=[];autosize=1;strokeColor=none;fontSize=11;" vertex="1" parent="obPb8DVYNnawBPwpHqBk-1">
          <mxGeometry x="114" y="260" width="30" height="20" as="geometry" />
        </mxCell>
        <mxCell id="obPb8DVYNnawBPwpHqBk-37" value="Set char_index to the next index in word_index." style="rounded=0;whiteSpace=wrap;html=1;fontSize=12;fillColor=#dae8fc;strokeColor=#6c8ebf;" vertex="1" parent="obPb8DVYNnawBPwpHqBk-1">
          <mxGeometry x="539" y="310" width="120" height="60" as="geometry" />
        </mxCell>
        <mxCell id="obPb8DVYNnawBPwpHqBk-38" style="edgeStyle=orthogonalEdgeStyle;rounded=0;orthogonalLoop=1;jettySize=auto;html=1;exitX=1;exitY=0.5;exitDx=0;exitDy=0;entryX=0;entryY=0.5;entryDx=0;entryDy=0;fontSize=12;" edge="1" parent="obPb8DVYNnawBPwpHqBk-1" source="obPb8DVYNnawBPwpHqBk-39">
          <mxGeometry relative="1" as="geometry">
            <mxPoint x="819" y="340" as="targetPoint" />
          </mxGeometry>
        </mxCell>
        <mxCell id="obPb8DVYNnawBPwpHqBk-39" value="Is the user decrypting without looping?" style="rhombus;whiteSpace=wrap;html=1;fontSize=12;fillColor=#d5e8d4;strokeColor=#82b366;" vertex="1" parent="obPb8DVYNnawBPwpHqBk-1">
          <mxGeometry x="699" y="300" width="80" height="80" as="geometry" />
        </mxCell>
        <mxCell id="obPb8DVYNnawBPwpHqBk-40" value="" style="endArrow=none;html=1;fontSize=12;entryX=1;entryY=0.5;entryDx=0;entryDy=0;" edge="1" parent="obPb8DVYNnawBPwpHqBk-1" target="obPb8DVYNnawBPwpHqBk-37">
          <mxGeometry width="50" height="50" relative="1" as="geometry">
            <mxPoint x="679" y="340" as="sourcePoint" />
            <mxPoint x="729" y="410" as="targetPoint" />
          </mxGeometry>
        </mxCell>
        <mxCell id="obPb8DVYNnawBPwpHqBk-41" value="" style="endArrow=none;html=1;fontSize=12;" edge="1" parent="obPb8DVYNnawBPwpHqBk-1">
          <mxGeometry width="50" height="50" relative="1" as="geometry">
            <mxPoint x="679" y="400" as="sourcePoint" />
            <mxPoint x="679" y="340" as="targetPoint" />
          </mxGeometry>
        </mxCell>
        <mxCell id="obPb8DVYNnawBPwpHqBk-42" value="" style="endArrow=none;html=1;fontSize=12;" edge="1" parent="obPb8DVYNnawBPwpHqBk-1">
          <mxGeometry width="50" height="50" relative="1" as="geometry">
            <mxPoint x="39" y="150" as="sourcePoint" />
            <mxPoint x="39" y="400" as="targetPoint" />
          </mxGeometry>
        </mxCell>
        <mxCell id="obPb8DVYNnawBPwpHqBk-43" value="" style="endArrow=none;html=1;fontSize=12;" edge="1" parent="obPb8DVYNnawBPwpHqBk-1">
          <mxGeometry width="50" height="50" relative="1" as="geometry">
            <mxPoint x="39" y="150" as="sourcePoint" />
            <mxPoint x="509" y="150" as="targetPoint" />
          </mxGeometry>
        </mxCell>
        <mxCell id="obPb8DVYNnawBPwpHqBk-44" value="" style="endArrow=classic;html=1;fontSize=12;entryX=0.5;entryY=0;entryDx=0;entryDy=0;" edge="1" parent="obPb8DVYNnawBPwpHqBk-1" target="obPb8DVYNnawBPwpHqBk-22">
          <mxGeometry width="50" height="50" relative="1" as="geometry">
            <mxPoint x="509" y="150" as="sourcePoint" />
            <mxPoint x="464" y="504.5" as="targetPoint" />
          </mxGeometry>
        </mxCell>
        <mxCell id="obPb8DVYNnawBPwpHqBk-45" style="edgeStyle=orthogonalEdgeStyle;rounded=0;orthogonalLoop=1;jettySize=auto;html=1;exitX=1;exitY=0.5;exitDx=0;exitDy=0;entryX=0;entryY=0.5;entryDx=0;entryDy=0;fontSize=12;" edge="1" parent="obPb8DVYNnawBPwpHqBk-1" source="obPb8DVYNnawBPwpHqBk-46" target="obPb8DVYNnawBPwpHqBk-48">
          <mxGeometry relative="1" as="geometry" />
        </mxCell>
        <mxCell id="obPb8DVYNnawBPwpHqBk-46" value="Is the amount of characters in the temp word with special characters removed odd?" style="rhombus;whiteSpace=wrap;html=1;fontSize=10;fillColor=#d5e8d4;strokeColor=#82b366;" vertex="1" parent="obPb8DVYNnawBPwpHqBk-1">
          <mxGeometry x="819" y="300" width="80" height="80" as="geometry" />
        </mxCell>
        <mxCell id="obPb8DVYNnawBPwpHqBk-47" value="&lt;b style=&quot;font-size: 12px;&quot;&gt;Yes&lt;/b&gt;" style="text;html=1;align=center;verticalAlign=middle;resizable=0;points=[];autosize=1;strokeColor=none;fontSize=12;" vertex="1" parent="obPb8DVYNnawBPwpHqBk-1">
          <mxGeometry x="774" y="320" width="40" height="20" as="geometry" />
        </mxCell>
        <mxCell id="obPb8DVYNnawBPwpHqBk-48" value="&lt;span style=&quot;font-size: 10px&quot;&gt;Return to previous function with return value stating that the input text is incompatible.&lt;/span&gt;" style="ellipse;whiteSpace=wrap;html=1;aspect=fixed;fontSize=12;fillColor=#e1d5e7;strokeColor=#9673a6;" vertex="1" parent="obPb8DVYNnawBPwpHqBk-1">
          <mxGeometry x="939" y="300" width="80" height="80" as="geometry" />
        </mxCell>
        <mxCell id="obPb8DVYNnawBPwpHqBk-49" value="&lt;b&gt;Yes&lt;/b&gt;" style="text;html=1;align=center;verticalAlign=middle;resizable=0;points=[];autosize=1;strokeColor=none;fontSize=12;" vertex="1" parent="obPb8DVYNnawBPwpHqBk-1">
          <mxGeometry x="899" y="320" width="40" height="20" as="geometry" />
        </mxCell>
        <mxCell id="obPb8DVYNnawBPwpHqBk-50" style="edgeStyle=orthogonalEdgeStyle;rounded=0;orthogonalLoop=1;jettySize=auto;html=1;exitX=0;exitY=0.5;exitDx=0;exitDy=0;entryX=1;entryY=0.5;entryDx=0;entryDy=0;fontSize=12;" edge="1" parent="obPb8DVYNnawBPwpHqBk-1" source="obPb8DVYNnawBPwpHqBk-51" target="obPb8DVYNnawBPwpHqBk-53">
          <mxGeometry relative="1" as="geometry" />
        </mxCell>
        <mxCell id="obPb8DVYNnawBPwpHqBk-51" value="Is the user double encrypting?" style="rhombus;whiteSpace=wrap;html=1;fontSize=12;fillColor=#d5e8d4;strokeColor=#82b366;" vertex="1" parent="obPb8DVYNnawBPwpHqBk-1">
          <mxGeometry x="939" y="420" width="80" height="80" as="geometry" />
        </mxCell>
        <mxCell id="obPb8DVYNnawBPwpHqBk-52" style="edgeStyle=orthogonalEdgeStyle;rounded=0;orthogonalLoop=1;jettySize=auto;html=1;exitX=0.5;exitY=1;exitDx=0;exitDy=0;entryX=0.5;entryY=0;entryDx=0;entryDy=0;fontSize=8;" edge="1" parent="obPb8DVYNnawBPwpHqBk-1" source="obPb8DVYNnawBPwpHqBk-53" target="obPb8DVYNnawBPwpHqBk-70">
          <mxGeometry relative="1" as="geometry" />
        </mxCell>
        <mxCell id="obPb8DVYNnawBPwpHqBk-53" value="Encrypt temp word with special chars removed, move first character to the back of the word, and decrypt the word, save as translated word." style="rounded=0;whiteSpace=wrap;html=1;fontSize=9;fillColor=#dae8fc;strokeColor=#6c8ebf;" vertex="1" parent="obPb8DVYNnawBPwpHqBk-1">
          <mxGeometry x="779" y="430" width="120" height="60" as="geometry" />
        </mxCell>
        <mxCell id="obPb8DVYNnawBPwpHqBk-54" style="edgeStyle=orthogonalEdgeStyle;rounded=0;orthogonalLoop=1;jettySize=auto;html=1;exitX=0;exitY=0.5;exitDx=0;exitDy=0;entryX=1;entryY=0.5;entryDx=0;entryDy=0;fontSize=12;" edge="1" parent="obPb8DVYNnawBPwpHqBk-1" source="obPb8DVYNnawBPwpHqBk-55" target="obPb8DVYNnawBPwpHqBk-57">
          <mxGeometry relative="1" as="geometry" />
        </mxCell>
        <mxCell id="obPb8DVYNnawBPwpHqBk-55" value="&lt;span&gt;Is the user double decrypting&lt;/span&gt;" style="rhombus;whiteSpace=wrap;html=1;fontSize=12;fillColor=#d5e8d4;strokeColor=#82b366;" vertex="1" parent="obPb8DVYNnawBPwpHqBk-1">
          <mxGeometry x="659" y="420" width="80" height="80" as="geometry" />
        </mxCell>
        <mxCell id="obPb8DVYNnawBPwpHqBk-56" style="edgeStyle=orthogonalEdgeStyle;rounded=0;orthogonalLoop=1;jettySize=auto;html=1;exitX=0.5;exitY=1;exitDx=0;exitDy=0;entryX=0.5;entryY=0;entryDx=0;entryDy=0;fontSize=12;" edge="1" parent="obPb8DVYNnawBPwpHqBk-1" source="obPb8DVYNnawBPwpHqBk-57" target="obPb8DVYNnawBPwpHqBk-70">
          <mxGeometry relative="1" as="geometry" />
        </mxCell>
        <mxCell id="obPb8DVYNnawBPwpHqBk-57" value="Encrypt temp word with special chars removed, move last character to the front of the word, and decrypt the word, save as translated word." style="rounded=0;whiteSpace=wrap;html=1;fontSize=9;fillColor=#dae8fc;strokeColor=#6c8ebf;" vertex="1" parent="obPb8DVYNnawBPwpHqBk-1">
          <mxGeometry x="499" y="430" width="120" height="60" as="geometry" />
        </mxCell>
        <mxCell id="obPb8DVYNnawBPwpHqBk-58" value="&lt;b&gt;Yes&lt;/b&gt;" style="text;html=1;align=center;verticalAlign=middle;resizable=0;points=[];autosize=1;strokeColor=none;fontSize=12;" vertex="1" parent="obPb8DVYNnawBPwpHqBk-1">
          <mxGeometry x="619" y="440" width="40" height="20" as="geometry" />
        </mxCell>
        <mxCell id="obPb8DVYNnawBPwpHqBk-59" style="edgeStyle=orthogonalEdgeStyle;rounded=0;orthogonalLoop=1;jettySize=auto;html=1;exitX=0;exitY=0.5;exitDx=0;exitDy=0;entryX=1;entryY=0.5;entryDx=0;entryDy=0;fontSize=12;" edge="1" parent="obPb8DVYNnawBPwpHqBk-1" source="obPb8DVYNnawBPwpHqBk-60" target="obPb8DVYNnawBPwpHqBk-62">
          <mxGeometry relative="1" as="geometry" />
        </mxCell>
        <mxCell id="obPb8DVYNnawBPwpHqBk-60" value="Is the user single encrypting?" style="rhombus;whiteSpace=wrap;html=1;fontSize=12;fillColor=#d5e8d4;strokeColor=#82b366;" vertex="1" parent="obPb8DVYNnawBPwpHqBk-1">
          <mxGeometry x="379" y="420" width="80" height="80" as="geometry" />
        </mxCell>
        <mxCell id="obPb8DVYNnawBPwpHqBk-61" style="edgeStyle=orthogonalEdgeStyle;rounded=0;orthogonalLoop=1;jettySize=auto;html=1;exitX=0.5;exitY=1;exitDx=0;exitDy=0;entryX=0.5;entryY=0;entryDx=0;entryDy=0;fontSize=8;" edge="1" parent="obPb8DVYNnawBPwpHqBk-1" source="obPb8DVYNnawBPwpHqBk-62" target="obPb8DVYNnawBPwpHqBk-70">
          <mxGeometry relative="1" as="geometry" />
        </mxCell>
        <mxCell id="obPb8DVYNnawBPwpHqBk-62" value="Encrypt word, save as translated word." style="rounded=0;whiteSpace=wrap;html=1;fontSize=12;fillColor=#dae8fc;strokeColor=#6c8ebf;" vertex="1" parent="obPb8DVYNnawBPwpHqBk-1">
          <mxGeometry x="219" y="430" width="120" height="60" as="geometry" />
        </mxCell>
        <mxCell id="obPb8DVYNnawBPwpHqBk-63" value="" style="endArrow=none;html=1;fontSize=12;" edge="1" parent="obPb8DVYNnawBPwpHqBk-1">
          <mxGeometry width="50" height="50" relative="1" as="geometry">
            <mxPoint x="139" y="400" as="sourcePoint" />
            <mxPoint x="419" y="400" as="targetPoint" />
          </mxGeometry>
        </mxCell>
        <mxCell id="obPb8DVYNnawBPwpHqBk-64" style="edgeStyle=orthogonalEdgeStyle;rounded=0;orthogonalLoop=1;jettySize=auto;html=1;exitX=0.5;exitY=1;exitDx=0;exitDy=0;fontSize=8;" edge="1" parent="obPb8DVYNnawBPwpHqBk-1" source="obPb8DVYNnawBPwpHqBk-65" target="obPb8DVYNnawBPwpHqBk-70">
          <mxGeometry relative="1" as="geometry" />
        </mxCell>
        <mxCell id="obPb8DVYNnawBPwpHqBk-65" value="Decrypt word, save as translated word." style="rounded=0;whiteSpace=wrap;html=1;fontSize=12;fillColor=#dae8fc;strokeColor=#6c8ebf;" vertex="1" parent="obPb8DVYNnawBPwpHqBk-1">
          <mxGeometry x="59" y="430" width="120" height="60" as="geometry" />
        </mxCell>
        <mxCell id="obPb8DVYNnawBPwpHqBk-66" value="&lt;b&gt;Yes&lt;/b&gt;" style="text;html=1;align=center;verticalAlign=middle;resizable=0;points=[];autosize=1;strokeColor=none;fontSize=12;" vertex="1" parent="obPb8DVYNnawBPwpHqBk-1">
          <mxGeometry x="339" y="440" width="40" height="20" as="geometry" />
        </mxCell>
        <mxCell id="obPb8DVYNnawBPwpHqBk-67" style="edgeStyle=orthogonalEdgeStyle;rounded=0;orthogonalLoop=1;jettySize=auto;html=1;exitX=1;exitY=0.5;exitDx=0;exitDy=0;entryX=0;entryY=0.5;entryDx=0;entryDy=0;" edge="1" parent="obPb8DVYNnawBPwpHqBk-1" source="obPb8DVYNnawBPwpHqBk-68" target="obPb8DVYNnawBPwpHqBk-75">
          <mxGeometry relative="1" as="geometry" />
        </mxCell>
        <mxCell id="obPb8DVYNnawBPwpHqBk-68" value="Separate input string into a list of indexes separate words." style="rounded=0;whiteSpace=wrap;html=1;fontSize=12;fillColor=#dae8fc;strokeColor=#6c8ebf;" vertex="1" parent="obPb8DVYNnawBPwpHqBk-1">
          <mxGeometry x="569" y="70" width="120" height="60" as="geometry" />
        </mxCell>
        <mxCell id="obPb8DVYNnawBPwpHqBk-69" style="edgeStyle=orthogonalEdgeStyle;rounded=0;orthogonalLoop=1;jettySize=auto;html=1;exitX=1;exitY=0.5;exitDx=0;exitDy=0;entryX=0;entryY=0.5;entryDx=0;entryDy=0;fontSize=9;" edge="1" parent="obPb8DVYNnawBPwpHqBk-1" source="obPb8DVYNnawBPwpHqBk-70" target="obPb8DVYNnawBPwpHqBk-73">
          <mxGeometry relative="1" as="geometry" />
        </mxCell>
        <mxCell id="obPb8DVYNnawBPwpHqBk-70" value="&lt;font style=&quot;font-size: 11px;&quot;&gt;Use the special char index list to add in the special character&#39;s into the encrypted word.&lt;/font&gt;" style="rounded=0;whiteSpace=wrap;html=1;fontSize=11;fillColor=#dae8fc;strokeColor=#6c8ebf;" vertex="1" parent="obPb8DVYNnawBPwpHqBk-1">
          <mxGeometry x="59" y="550" width="120" height="60" as="geometry" />
        </mxCell>
        <mxCell id="obPb8DVYNnawBPwpHqBk-71" value="&lt;span style=&quot;font-size: 10px&quot;&gt;Return to previous function with return value stating that the input text is incompatible.&lt;/span&gt;" style="ellipse;whiteSpace=wrap;html=1;aspect=fixed;fontSize=12;fillColor=#e1d5e7;strokeColor=#9673a6;" vertex="1" parent="obPb8DVYNnawBPwpHqBk-1">
          <mxGeometry x="449" y="60" width="80" height="80" as="geometry" />
        </mxCell>
        <mxCell id="obPb8DVYNnawBPwpHqBk-72" style="edgeStyle=orthogonalEdgeStyle;rounded=0;orthogonalLoop=1;jettySize=auto;html=1;exitX=1;exitY=0.5;exitDx=0;exitDy=0;entryX=0;entryY=0.5;entryDx=0;entryDy=0;" edge="1" parent="obPb8DVYNnawBPwpHqBk-1" source="obPb8DVYNnawBPwpHqBk-73">
          <mxGeometry relative="1" as="geometry">
            <mxPoint x="359" y="580" as="targetPoint" />
          </mxGeometry>
        </mxCell>
        <mxCell id="obPb8DVYNnawBPwpHqBk-73" value="Use the upper-case character index list to add in an upper-case in the encrypted word." style="rounded=0;whiteSpace=wrap;html=1;fontSize=11;fillColor=#dae8fc;strokeColor=#6c8ebf;" vertex="1" parent="obPb8DVYNnawBPwpHqBk-1">
          <mxGeometry x="209" y="550" width="120" height="60" as="geometry" />
        </mxCell>
        <mxCell id="obPb8DVYNnawBPwpHqBk-74" style="edgeStyle=orthogonalEdgeStyle;rounded=0;orthogonalLoop=1;jettySize=auto;html=1;exitX=1;exitY=0.5;exitDx=0;exitDy=0;entryX=0;entryY=0.5;entryDx=0;entryDy=0;" edge="1" parent="obPb8DVYNnawBPwpHqBk-1" source="obPb8DVYNnawBPwpHqBk-75" target="obPb8DVYNnawBPwpHqBk-13">
          <mxGeometry relative="1" as="geometry" />
        </mxCell>
        <mxCell id="obPb8DVYNnawBPwpHqBk-75" value="Create a variable to hold the translated input string." style="rounded=0;whiteSpace=wrap;html=1;fontSize=12;fillColor=#dae8fc;strokeColor=#6c8ebf;" vertex="1" parent="obPb8DVYNnawBPwpHqBk-1">
          <mxGeometry x="729" y="70" width="120" height="60" as="geometry" />
        </mxCell>
        <mxCell id="obPb8DVYNnawBPwpHqBk-76" value="" style="endArrow=none;html=1;fontSize=12;entryX=0.5;entryY=1;entryDx=0;entryDy=0;" edge="1" parent="obPb8DVYNnawBPwpHqBk-1" target="obPb8DVYNnawBPwpHqBk-29">
          <mxGeometry width="50" height="50" relative="1" as="geometry">
            <mxPoint x="109" y="280" as="sourcePoint" />
            <mxPoint x="-66" y="614.5" as="targetPoint" />
          </mxGeometry>
        </mxCell>
        <mxCell id="obPb8DVYNnawBPwpHqBk-77" value="" style="endArrow=none;html=1;fontSize=12;" edge="1" parent="obPb8DVYNnawBPwpHqBk-1">
          <mxGeometry width="50" height="50" relative="1" as="geometry">
            <mxPoint x="439" y="280" as="sourcePoint" />
            <mxPoint x="109" y="280" as="targetPoint" />
          </mxGeometry>
        </mxCell>
        <mxCell id="obPb8DVYNnawBPwpHqBk-78" value="" style="endArrow=classic;html=1;fontSize=12;entryX=0.5;entryY=0;entryDx=0;entryDy=0;" edge="1" parent="obPb8DVYNnawBPwpHqBk-1" target="obPb8DVYNnawBPwpHqBk-35">
          <mxGeometry width="50" height="50" relative="1" as="geometry">
            <mxPoint x="439" y="280" as="sourcePoint" />
            <mxPoint x="349" y="700" as="targetPoint" />
          </mxGeometry>
        </mxCell>
        <mxCell id="obPb8DVYNnawBPwpHqBk-79" value="" style="endArrow=none;html=1;fontSize=12;" edge="1" parent="obPb8DVYNnawBPwpHqBk-1">
          <mxGeometry width="50" height="50" relative="1" as="geometry">
            <mxPoint x="39" y="400" as="sourcePoint" />
            <mxPoint x="679" y="400" as="targetPoint" />
          </mxGeometry>
        </mxCell>
        <mxCell id="obPb8DVYNnawBPwpHqBk-80" value="&lt;b&gt;Yes&lt;/b&gt;" style="text;html=1;align=center;verticalAlign=middle;resizable=0;points=[];autosize=1;strokeColor=none;fontSize=12;" vertex="1" parent="obPb8DVYNnawBPwpHqBk-1">
          <mxGeometry x="509" y="260" width="40" height="20" as="geometry" />
        </mxCell>
        <mxCell id="obPb8DVYNnawBPwpHqBk-81" value="&lt;b&gt;No&lt;/b&gt;" style="text;html=1;align=center;verticalAlign=middle;resizable=0;points=[];autosize=1;strokeColor=none;fontSize=12;" vertex="1" parent="obPb8DVYNnawBPwpHqBk-1">
          <mxGeometry x="739" y="380" width="30" height="20" as="geometry" />
        </mxCell>
        <mxCell id="obPb8DVYNnawBPwpHqBk-82" value="&lt;b&gt;Yes&lt;/b&gt;" style="text;html=1;align=center;verticalAlign=middle;resizable=0;points=[];autosize=1;strokeColor=none;fontSize=12;" vertex="1" parent="obPb8DVYNnawBPwpHqBk-1">
          <mxGeometry x="899" y="440" width="40" height="20" as="geometry" />
        </mxCell>
        <mxCell id="obPb8DVYNnawBPwpHqBk-83" value="" style="endArrow=none;html=1;fontSize=12;entryX=0.5;entryY=1;entryDx=0;entryDy=0;" edge="1" parent="obPb8DVYNnawBPwpHqBk-1" target="obPb8DVYNnawBPwpHqBk-39">
          <mxGeometry width="50" height="50" relative="1" as="geometry">
            <mxPoint x="739" y="400" as="sourcePoint" />
            <mxPoint x="709" y="390" as="targetPoint" />
          </mxGeometry>
        </mxCell>
        <mxCell id="obPb8DVYNnawBPwpHqBk-84" value="" style="endArrow=none;html=1;fontSize=12;" edge="1" parent="obPb8DVYNnawBPwpHqBk-1">
          <mxGeometry width="50" height="50" relative="1" as="geometry">
            <mxPoint x="739" y="400" as="sourcePoint" />
            <mxPoint x="1039" y="400" as="targetPoint" />
          </mxGeometry>
        </mxCell>
        <mxCell id="obPb8DVYNnawBPwpHqBk-85" value="" style="endArrow=none;html=1;fontSize=12;" edge="1" parent="obPb8DVYNnawBPwpHqBk-1">
          <mxGeometry width="50" height="50" relative="1" as="geometry">
            <mxPoint x="1039" y="460" as="sourcePoint" />
            <mxPoint x="1039" y="400" as="targetPoint" />
          </mxGeometry>
        </mxCell>
        <mxCell id="obPb8DVYNnawBPwpHqBk-86" value="" style="endArrow=classic;html=1;fontSize=12;entryX=1;entryY=0.5;entryDx=0;entryDy=0;" edge="1" parent="obPb8DVYNnawBPwpHqBk-1" target="obPb8DVYNnawBPwpHqBk-51">
          <mxGeometry width="50" height="50" relative="1" as="geometry">
            <mxPoint x="1039" y="460" as="sourcePoint" />
            <mxPoint x="1039" y="590" as="targetPoint" />
          </mxGeometry>
        </mxCell>
        <mxCell id="obPb8DVYNnawBPwpHqBk-87" value="" style="endArrow=none;html=1;fontSize=12;entryX=0.5;entryY=0;entryDx=0;entryDy=0;" edge="1" parent="obPb8DVYNnawBPwpHqBk-1" target="obPb8DVYNnawBPwpHqBk-51">
          <mxGeometry width="50" height="50" relative="1" as="geometry">
            <mxPoint x="759" y="420" as="sourcePoint" />
            <mxPoint x="949" y="420" as="targetPoint" />
          </mxGeometry>
        </mxCell>
        <mxCell id="obPb8DVYNnawBPwpHqBk-88" value="" style="endArrow=none;html=1;fontSize=12;" edge="1" parent="obPb8DVYNnawBPwpHqBk-1">
          <mxGeometry width="50" height="50" relative="1" as="geometry">
            <mxPoint x="759" y="460" as="sourcePoint" />
            <mxPoint x="759" y="420" as="targetPoint" />
          </mxGeometry>
        </mxCell>
        <mxCell id="obPb8DVYNnawBPwpHqBk-89" value="" style="endArrow=classic;html=1;fontSize=12;entryX=1;entryY=0.5;entryDx=0;entryDy=0;" edge="1" parent="obPb8DVYNnawBPwpHqBk-1" target="obPb8DVYNnawBPwpHqBk-55">
          <mxGeometry width="50" height="50" relative="1" as="geometry">
            <mxPoint x="759" y="460" as="sourcePoint" />
            <mxPoint x="699" y="590" as="targetPoint" />
          </mxGeometry>
        </mxCell>
        <mxCell id="obPb8DVYNnawBPwpHqBk-90" value="" style="endArrow=none;html=1;fontSize=12;entryX=0.5;entryY=0;entryDx=0;entryDy=0;exitX=0.5;exitY=0;exitDx=0;exitDy=0;" edge="1" parent="obPb8DVYNnawBPwpHqBk-1" source="obPb8DVYNnawBPwpHqBk-60" target="obPb8DVYNnawBPwpHqBk-60">
          <mxGeometry width="50" height="50" relative="1" as="geometry">
            <mxPoint x="369" y="720" as="sourcePoint" />
            <mxPoint x="419" y="670" as="targetPoint" />
          </mxGeometry>
        </mxCell>
        <mxCell id="obPb8DVYNnawBPwpHqBk-91" style="edgeStyle=orthogonalEdgeStyle;rounded=0;orthogonalLoop=1;jettySize=auto;html=1;exitX=1;exitY=0.5;exitDx=0;exitDy=0;entryX=0;entryY=0.5;entryDx=0;entryDy=0;" edge="1" parent="obPb8DVYNnawBPwpHqBk-1" source="obPb8DVYNnawBPwpHqBk-92" target="obPb8DVYNnawBPwpHqBk-4">
          <mxGeometry relative="1" as="geometry" />
        </mxCell>
        <mxCell id="obPb8DVYNnawBPwpHqBk-92" value="&lt;span style=&quot;font-size: 8px&quot;&gt;tavin_translator_core&lt;/span&gt;" style="shape=offPageConnector;whiteSpace=wrap;html=1;fillColor=#ffe6cc;strokeColor=#d79b00;" vertex="1" parent="obPb8DVYNnawBPwpHqBk-1">
          <mxGeometry x="89" y="60" width="80" height="80" as="geometry" />
        </mxCell>
        <mxCell id="obPb8DVYNnawBPwpHqBk-93" style="edgeStyle=orthogonalEdgeStyle;rounded=0;orthogonalLoop=1;jettySize=auto;html=1;exitX=1;exitY=0.5;exitDx=0;exitDy=0;entryX=0;entryY=0.5;entryDx=0;entryDy=0;fontSize=8;" edge="1" parent="obPb8DVYNnawBPwpHqBk-1" source="obPb8DVYNnawBPwpHqBk-95" target="obPb8DVYNnawBPwpHqBk-102">
          <mxGeometry relative="1" as="geometry" />
        </mxCell>
        <mxCell id="obPb8DVYNnawBPwpHqBk-94" style="edgeStyle=orthogonalEdgeStyle;rounded=0;orthogonalLoop=1;jettySize=auto;html=1;exitX=0.5;exitY=1;exitDx=0;exitDy=0;entryX=0.5;entryY=1;entryDx=0;entryDy=0;fontSize=8;" edge="1" parent="obPb8DVYNnawBPwpHqBk-1" source="obPb8DVYNnawBPwpHqBk-95" target="obPb8DVYNnawBPwpHqBk-105">
          <mxGeometry relative="1" as="geometry" />
        </mxCell>
        <mxCell id="obPb8DVYNnawBPwpHqBk-95" value="&lt;span style=&quot;font-size: 8px&quot;&gt;Is word_index equal to the FIRST index in word_index_seperator?&lt;/span&gt;" style="rhombus;whiteSpace=wrap;html=1;fillColor=#d5e8d4;strokeColor=#82b366;" vertex="1" parent="obPb8DVYNnawBPwpHqBk-1">
          <mxGeometry x="359" y="540" width="80" height="80" as="geometry" />
        </mxCell>
        <mxCell id="obPb8DVYNnawBPwpHqBk-96" value="" style="endArrow=none;html=1;entryX=0;entryY=0.5;entryDx=0;entryDy=0;" edge="1" parent="obPb8DVYNnawBPwpHqBk-1" target="obPb8DVYNnawBPwpHqBk-29">
          <mxGeometry width="50" height="50" relative="1" as="geometry">
            <mxPoint x="49" y="220" as="sourcePoint" />
            <mxPoint x="29" y="270" as="targetPoint" />
          </mxGeometry>
        </mxCell>
        <mxCell id="obPb8DVYNnawBPwpHqBk-97" value="" style="endArrow=none;html=1;" edge="1" parent="obPb8DVYNnawBPwpHqBk-1">
          <mxGeometry width="50" height="50" relative="1" as="geometry">
            <mxPoint x="49" y="300" as="sourcePoint" />
            <mxPoint x="49" y="220" as="targetPoint" />
          </mxGeometry>
        </mxCell>
        <mxCell id="obPb8DVYNnawBPwpHqBk-98" value="" style="endArrow=none;html=1;" edge="1" parent="obPb8DVYNnawBPwpHqBk-1">
          <mxGeometry width="50" height="50" relative="1" as="geometry">
            <mxPoint x="119" y="300" as="sourcePoint" />
            <mxPoint x="49" y="300" as="targetPoint" />
          </mxGeometry>
        </mxCell>
        <mxCell id="obPb8DVYNnawBPwpHqBk-99" value="" style="endArrow=classic;html=1;entryX=0.5;entryY=0;entryDx=0;entryDy=0;" edge="1" parent="obPb8DVYNnawBPwpHqBk-1" target="obPb8DVYNnawBPwpHqBk-31">
          <mxGeometry width="50" height="50" relative="1" as="geometry">
            <mxPoint x="119" y="300" as="sourcePoint" />
            <mxPoint x="19" y="360" as="targetPoint" />
          </mxGeometry>
        </mxCell>
        <mxCell id="obPb8DVYNnawBPwpHqBk-100" value="&lt;b&gt;Yes&lt;/b&gt;" style="text;html=1;align=center;verticalAlign=middle;resizable=0;points=[];autosize=1;strokeColor=none;" vertex="1" parent="obPb8DVYNnawBPwpHqBk-1">
          <mxGeometry x="39" y="230" width="40" height="20" as="geometry" />
        </mxCell>
        <mxCell id="obPb8DVYNnawBPwpHqBk-101" style="edgeStyle=orthogonalEdgeStyle;rounded=0;orthogonalLoop=1;jettySize=auto;html=1;exitX=1;exitY=0.5;exitDx=0;exitDy=0;entryX=0;entryY=0.5;entryDx=0;entryDy=0;fontSize=11;" edge="1" parent="obPb8DVYNnawBPwpHqBk-1" source="obPb8DVYNnawBPwpHqBk-102" target="obPb8DVYNnawBPwpHqBk-105">
          <mxGeometry relative="1" as="geometry" />
        </mxCell>
        <mxCell id="obPb8DVYNnawBPwpHqBk-102" value="Set translated input string equal to all characters with indexes before word_index.." style="rounded=0;whiteSpace=wrap;html=1;fontSize=11;fillColor=#dae8fc;strokeColor=#6c8ebf;" vertex="1" parent="obPb8DVYNnawBPwpHqBk-1">
          <mxGeometry x="479" y="550" width="120" height="60" as="geometry" />
        </mxCell>
        <mxCell id="obPb8DVYNnawBPwpHqBk-103" value="&lt;b&gt;Yes&lt;br&gt;&lt;/b&gt;" style="text;html=1;align=center;verticalAlign=middle;resizable=0;points=[];autosize=1;strokeColor=none;fontSize=11;" vertex="1" parent="obPb8DVYNnawBPwpHqBk-1">
          <mxGeometry x="439" y="560" width="30" height="20" as="geometry" />
        </mxCell>
        <mxCell id="obPb8DVYNnawBPwpHqBk-104" style="edgeStyle=orthogonalEdgeStyle;rounded=0;orthogonalLoop=1;jettySize=auto;html=1;exitX=1;exitY=0.5;exitDx=0;exitDy=0;entryX=0;entryY=0.5;entryDx=0;entryDy=0;fontSize=11;" edge="1" parent="obPb8DVYNnawBPwpHqBk-1" source="obPb8DVYNnawBPwpHqBk-105" target="obPb8DVYNnawBPwpHqBk-107">
          <mxGeometry relative="1" as="geometry" />
        </mxCell>
        <mxCell id="obPb8DVYNnawBPwpHqBk-105" value="&lt;font style=&quot;font-size: 12px&quot;&gt;Add translated word to translated input.&lt;/font&gt;" style="rounded=0;whiteSpace=wrap;html=1;fontSize=11;fillColor=#dae8fc;strokeColor=#6c8ebf;" vertex="1" parent="obPb8DVYNnawBPwpHqBk-1">
          <mxGeometry x="639" y="550" width="120" height="60" as="geometry" />
        </mxCell>
        <mxCell id="obPb8DVYNnawBPwpHqBk-106" style="edgeStyle=orthogonalEdgeStyle;rounded=0;orthogonalLoop=1;jettySize=auto;html=1;exitX=1;exitY=0.5;exitDx=0;exitDy=0;entryX=0.5;entryY=0;entryDx=0;entryDy=0;" edge="1" parent="obPb8DVYNnawBPwpHqBk-1" source="obPb8DVYNnawBPwpHqBk-107" target="obPb8DVYNnawBPwpHqBk-136">
          <mxGeometry relative="1" as="geometry" />
        </mxCell>
        <mxCell id="obPb8DVYNnawBPwpHqBk-107" value="Add characters with indexes between (exclusive) the end of word_index, and the next word_index (or the end of the list)." style="rounded=0;whiteSpace=wrap;html=1;fontSize=9;fillColor=#dae8fc;strokeColor=#6c8ebf;" vertex="1" parent="obPb8DVYNnawBPwpHqBk-1">
          <mxGeometry x="799" y="550" width="120" height="60" as="geometry" />
        </mxCell>
        <mxCell id="obPb8DVYNnawBPwpHqBk-108" value="&lt;b style=&quot;font-size: 9px;&quot;&gt;No&lt;/b&gt;" style="text;html=1;align=center;verticalAlign=middle;resizable=0;points=[];autosize=1;strokeColor=none;fontSize=9;" vertex="1" parent="obPb8DVYNnawBPwpHqBk-1">
          <mxGeometry x="939" y="420" width="30" height="20" as="geometry" />
        </mxCell>
        <mxCell id="obPb8DVYNnawBPwpHqBk-109" value="" style="endArrow=none;html=1;fontSize=12;entryX=0.5;entryY=0;entryDx=0;entryDy=0;" edge="1" parent="obPb8DVYNnawBPwpHqBk-1" target="obPb8DVYNnawBPwpHqBk-55">
          <mxGeometry width="50" height="50" relative="1" as="geometry">
            <mxPoint x="479" y="420" as="sourcePoint" />
            <mxPoint x="699" y="420" as="targetPoint" />
          </mxGeometry>
        </mxCell>
        <mxCell id="obPb8DVYNnawBPwpHqBk-110" value="" style="endArrow=none;html=1;fontSize=12;" edge="1" parent="obPb8DVYNnawBPwpHqBk-1">
          <mxGeometry width="50" height="50" relative="1" as="geometry">
            <mxPoint x="479" y="460" as="sourcePoint" />
            <mxPoint x="479" y="420" as="targetPoint" />
          </mxGeometry>
        </mxCell>
        <mxCell id="obPb8DVYNnawBPwpHqBk-111" value="" style="endArrow=classic;html=1;fontSize=12;entryX=1;entryY=0.5;entryDx=0;entryDy=0;" edge="1" parent="obPb8DVYNnawBPwpHqBk-1" target="obPb8DVYNnawBPwpHqBk-60">
          <mxGeometry width="50" height="50" relative="1" as="geometry">
            <mxPoint x="479" y="460" as="sourcePoint" />
            <mxPoint x="469" y="470" as="targetPoint" />
          </mxGeometry>
        </mxCell>
        <mxCell id="obPb8DVYNnawBPwpHqBk-112" value="&lt;b style=&quot;font-size: 9px;&quot;&gt;No&lt;/b&gt;" style="text;html=1;align=center;verticalAlign=middle;resizable=0;points=[];autosize=1;strokeColor=none;fontSize=9;" vertex="1" parent="obPb8DVYNnawBPwpHqBk-1">
          <mxGeometry x="659" y="420" width="30" height="20" as="geometry" />
        </mxCell>
        <mxCell id="obPb8DVYNnawBPwpHqBk-113" value="" style="endArrow=none;html=1;fontSize=12;entryX=0.5;entryY=0;entryDx=0;entryDy=0;" edge="1" parent="obPb8DVYNnawBPwpHqBk-1" target="obPb8DVYNnawBPwpHqBk-60">
          <mxGeometry width="50" height="50" relative="1" as="geometry">
            <mxPoint x="199" y="419.1700000000001" as="sourcePoint" />
            <mxPoint x="419" y="410" as="targetPoint" />
          </mxGeometry>
        </mxCell>
        <mxCell id="obPb8DVYNnawBPwpHqBk-114" value="" style="endArrow=none;html=1;fontSize=12;" edge="1" parent="obPb8DVYNnawBPwpHqBk-1">
          <mxGeometry width="50" height="50" relative="1" as="geometry">
            <mxPoint x="199" y="459.1700000000001" as="sourcePoint" />
            <mxPoint x="199" y="419.1700000000001" as="targetPoint" />
          </mxGeometry>
        </mxCell>
        <mxCell id="obPb8DVYNnawBPwpHqBk-115" value="&lt;b style=&quot;font-size: 9px;&quot;&gt;No&lt;/b&gt;" style="text;html=1;align=center;verticalAlign=middle;resizable=0;points=[];autosize=1;strokeColor=none;fontSize=9;" vertex="1" parent="obPb8DVYNnawBPwpHqBk-1">
          <mxGeometry x="379" y="420" width="30" height="20" as="geometry" />
        </mxCell>
        <mxCell id="obPb8DVYNnawBPwpHqBk-116" value="" style="endArrow=classic;html=1;fontSize=9;entryX=1;entryY=0.5;entryDx=0;entryDy=0;" edge="1" parent="obPb8DVYNnawBPwpHqBk-1" target="obPb8DVYNnawBPwpHqBk-65">
          <mxGeometry width="50" height="50" relative="1" as="geometry">
            <mxPoint x="199" y="460" as="sourcePoint" />
            <mxPoint x="199" y="490" as="targetPoint" />
          </mxGeometry>
        </mxCell>
        <mxCell id="obPb8DVYNnawBPwpHqBk-117" value="&lt;b style=&quot;font-size: 12px;&quot;&gt;No&lt;/b&gt;" style="text;html=1;align=center;verticalAlign=middle;resizable=0;points=[];autosize=1;strokeColor=none;fontSize=12;" vertex="1" parent="obPb8DVYNnawBPwpHqBk-1">
          <mxGeometry x="399" y="620" width="30" height="20" as="geometry" />
        </mxCell>
        <mxCell id="obPb8DVYNnawBPwpHqBk-118" style="edgeStyle=orthogonalEdgeStyle;rounded=0;orthogonalLoop=1;jettySize=auto;html=1;exitX=0;exitY=0.5;exitDx=0;exitDy=0;entryX=1;entryY=0.5;entryDx=0;entryDy=0;fontSize=9;" edge="1" parent="obPb8DVYNnawBPwpHqBk-1" source="obPb8DVYNnawBPwpHqBk-120" target="obPb8DVYNnawBPwpHqBk-122">
          <mxGeometry relative="1" as="geometry" />
        </mxCell>
        <mxCell id="obPb8DVYNnawBPwpHqBk-119" style="edgeStyle=orthogonalEdgeStyle;rounded=0;orthogonalLoop=1;jettySize=auto;html=1;exitX=0.5;exitY=1;exitDx=0;exitDy=0;entryX=0.5;entryY=1;entryDx=0;entryDy=0;fontSize=12;" edge="1" parent="obPb8DVYNnawBPwpHqBk-1" source="obPb8DVYNnawBPwpHqBk-120" target="obPb8DVYNnawBPwpHqBk-125">
          <mxGeometry relative="1" as="geometry" />
        </mxCell>
        <mxCell id="obPb8DVYNnawBPwpHqBk-120" value="Does the user want to loop over the translator again?" style="rhombus;whiteSpace=wrap;html=1;fontSize=9;fillColor=#d5e8d4;strokeColor=#82b366;" vertex="1" parent="obPb8DVYNnawBPwpHqBk-1">
          <mxGeometry x="779" y="660" width="80" height="80" as="geometry" />
        </mxCell>
        <mxCell id="obPb8DVYNnawBPwpHqBk-121" style="edgeStyle=orthogonalEdgeStyle;rounded=0;orthogonalLoop=1;jettySize=auto;html=1;exitX=0;exitY=0.5;exitDx=0;exitDy=0;entryX=1;entryY=0.5;entryDx=0;entryDy=0;fontSize=12;" edge="1" parent="obPb8DVYNnawBPwpHqBk-1" source="obPb8DVYNnawBPwpHqBk-122" target="obPb8DVYNnawBPwpHqBk-128">
          <mxGeometry relative="1" as="geometry" />
        </mxCell>
        <mxCell id="obPb8DVYNnawBPwpHqBk-122" value="Subtract one to how many times the user wants to loop over the translator." style="rounded=0;whiteSpace=wrap;html=1;fontSize=12;fillColor=#dae8fc;strokeColor=#6c8ebf;" vertex="1" parent="obPb8DVYNnawBPwpHqBk-1">
          <mxGeometry x="619" y="670" width="120" height="60" as="geometry" />
        </mxCell>
        <mxCell id="obPb8DVYNnawBPwpHqBk-123" value="Calls tavin_translator_core (recursively), with the all user input." style="ellipse;whiteSpace=wrap;html=1;aspect=fixed;fontSize=8;fillColor=#ffe6cc;strokeColor=#d79b00;" vertex="1" parent="obPb8DVYNnawBPwpHqBk-1">
          <mxGeometry x="339" y="660" width="80" height="80" as="geometry" />
        </mxCell>
        <mxCell id="obPb8DVYNnawBPwpHqBk-124" value="&lt;b&gt;Yes&lt;/b&gt;" style="text;html=1;align=center;verticalAlign=middle;resizable=0;points=[];autosize=1;strokeColor=none;fontSize=12;" vertex="1" parent="obPb8DVYNnawBPwpHqBk-1">
          <mxGeometry x="739" y="680" width="40" height="20" as="geometry" />
        </mxCell>
        <mxCell id="obPb8DVYNnawBPwpHqBk-125" value="Returns to previous function with return value of translated input." style="ellipse;whiteSpace=wrap;html=1;aspect=fixed;fontSize=10;fillColor=#e1d5e7;strokeColor=#9673a6;" vertex="1" parent="obPb8DVYNnawBPwpHqBk-1">
          <mxGeometry x="219" y="660" width="80" height="80" as="geometry" />
        </mxCell>
        <mxCell id="obPb8DVYNnawBPwpHqBk-126" value="&lt;b&gt;No&lt;/b&gt;" style="text;html=1;align=center;verticalAlign=middle;resizable=0;points=[];autosize=1;strokeColor=none;fontSize=12;" vertex="1" parent="obPb8DVYNnawBPwpHqBk-1">
          <mxGeometry x="789" y="740" width="30" height="20" as="geometry" />
        </mxCell>
        <mxCell id="obPb8DVYNnawBPwpHqBk-127" style="edgeStyle=orthogonalEdgeStyle;rounded=0;orthogonalLoop=1;jettySize=auto;html=1;exitX=0;exitY=0.5;exitDx=0;exitDy=0;entryX=1;entryY=0.5;entryDx=0;entryDy=0;fontSize=12;" edge="1" parent="obPb8DVYNnawBPwpHqBk-1" source="obPb8DVYNnawBPwpHqBk-128" target="obPb8DVYNnawBPwpHqBk-123">
          <mxGeometry relative="1" as="geometry" />
        </mxCell>
        <mxCell id="obPb8DVYNnawBPwpHqBk-128" value="Set input string to translated input." style="rounded=0;whiteSpace=wrap;html=1;fontSize=12;fillColor=#dae8fc;strokeColor=#6c8ebf;" vertex="1" parent="obPb8DVYNnawBPwpHqBk-1">
          <mxGeometry x="459" y="670" width="120" height="60" as="geometry" />
        </mxCell>
        <mxCell id="obPb8DVYNnawBPwpHqBk-129" value="" style="endArrow=none;html=1;fontSize=10;entryX=1;entryY=0.5;entryDx=0;entryDy=0;" edge="1" parent="obPb8DVYNnawBPwpHqBk-1" target="obPb8DVYNnawBPwpHqBk-15">
          <mxGeometry width="50" height="50" relative="1" as="geometry">
            <mxPoint x="1059" y="220" as="sourcePoint" />
            <mxPoint x="179" y="700" as="targetPoint" />
          </mxGeometry>
        </mxCell>
        <mxCell id="obPb8DVYNnawBPwpHqBk-130" value="&lt;font style=&quot;font-size: 12px&quot;&gt;&lt;b&gt;No&lt;/b&gt;&lt;/font&gt;" style="text;html=1;align=center;verticalAlign=middle;resizable=0;points=[];autosize=1;strokeColor=none;fontSize=10;" vertex="1" parent="obPb8DVYNnawBPwpHqBk-1">
          <mxGeometry x="879" y="200" width="30" height="20" as="geometry" />
        </mxCell>
        <mxCell id="obPb8DVYNnawBPwpHqBk-131" value="&lt;b&gt;&lt;font style=&quot;font-size: 12px&quot;&gt;Yes&lt;/font&gt;&lt;/b&gt;" style="text;html=1;align=center;verticalAlign=middle;resizable=0;points=[];autosize=1;strokeColor=none;fontSize=10;" vertex="1" parent="obPb8DVYNnawBPwpHqBk-1">
          <mxGeometry x="989" y="200" width="40" height="20" as="geometry" />
        </mxCell>
        <mxCell id="obPb8DVYNnawBPwpHqBk-132" value="" style="endArrow=none;html=1;fontSize=10;" edge="1" parent="obPb8DVYNnawBPwpHqBk-1">
          <mxGeometry width="50" height="50" relative="1" as="geometry">
            <mxPoint x="1059" y="750" as="sourcePoint" />
            <mxPoint x="1059" y="220" as="targetPoint" />
          </mxGeometry>
        </mxCell>
        <mxCell id="obPb8DVYNnawBPwpHqBk-133" value="" style="endArrow=none;html=1;fontSize=10;" edge="1" parent="obPb8DVYNnawBPwpHqBk-1">
          <mxGeometry width="50" height="50" relative="1" as="geometry">
            <mxPoint x="1049" y="700" as="sourcePoint" />
            <mxPoint x="1049" y="280" as="targetPoint" />
          </mxGeometry>
        </mxCell>
        <mxCell id="obPb8DVYNnawBPwpHqBk-134" value="" style="endArrow=none;html=1;fontSize=10;" edge="1" parent="obPb8DVYNnawBPwpHqBk-1">
          <mxGeometry width="50" height="50" relative="1" as="geometry">
            <mxPoint x="949" y="280" as="sourcePoint" />
            <mxPoint x="1049" y="280" as="targetPoint" />
          </mxGeometry>
        </mxCell>
        <mxCell id="obPb8DVYNnawBPwpHqBk-135" value="" style="endArrow=classic;html=1;fontSize=10;entryX=0.5;entryY=1;entryDx=0;entryDy=0;" edge="1" parent="obPb8DVYNnawBPwpHqBk-1" target="obPb8DVYNnawBPwpHqBk-15">
          <mxGeometry width="50" height="50" relative="1" as="geometry">
            <mxPoint x="949" y="280" as="sourcePoint" />
            <mxPoint x="209" y="660" as="targetPoint" />
          </mxGeometry>
        </mxCell>
        <mxCell id="obPb8DVYNnawBPwpHqBk-136" value="Set word_index to the next index in word_index_seperator." style="rounded=0;whiteSpace=wrap;html=1;fillColor=#dae8fc;strokeColor=#6c8ebf;" vertex="1" parent="obPb8DVYNnawBPwpHqBk-1">
          <mxGeometry x="899" y="670" width="120" height="60" as="geometry" />
        </mxCell>
        <mxCell id="obPb8DVYNnawBPwpHqBk-137" value="" style="endArrow=none;html=1;exitX=1;exitY=0.5;exitDx=0;exitDy=0;" edge="1" parent="obPb8DVYNnawBPwpHqBk-1" source="obPb8DVYNnawBPwpHqBk-136">
          <mxGeometry width="50" height="50" relative="1" as="geometry">
            <mxPoint x="880" y="840" as="sourcePoint" />
            <mxPoint x="1050" y="700" as="targetPoint" />
          </mxGeometry>
        </mxCell>
        <mxCell id="obPb8DVYNnawBPwpHqBk-138" value="" style="endArrow=none;html=1;" edge="1" parent="obPb8DVYNnawBPwpHqBk-1">
          <mxGeometry width="50" height="50" relative="1" as="geometry">
            <mxPoint x="880" y="750" as="sourcePoint" />
            <mxPoint x="1060" y="750" as="targetPoint" />
          </mxGeometry>
        </mxCell>
        <mxCell id="obPb8DVYNnawBPwpHqBk-139" value="" style="endArrow=none;html=1;" edge="1" parent="obPb8DVYNnawBPwpHqBk-1">
          <mxGeometry width="50" height="50" relative="1" as="geometry">
            <mxPoint x="880" y="700" as="sourcePoint" />
            <mxPoint x="880" y="750" as="targetPoint" />
          </mxGeometry>
        </mxCell>
        <mxCell id="obPb8DVYNnawBPwpHqBk-140" value="" style="endArrow=classic;html=1;entryX=1;entryY=0.5;entryDx=0;entryDy=0;" edge="1" parent="obPb8DVYNnawBPwpHqBk-1" target="obPb8DVYNnawBPwpHqBk-120">
          <mxGeometry width="50" height="50" relative="1" as="geometry">
            <mxPoint x="880" y="700" as="sourcePoint" />
            <mxPoint x="900" y="780" as="targetPoint" />
          </mxGeometry>
        </mxCell>
        <mxCell id="obPb8DVYNnawBPwpHqBk-141" value="" style="endArrow=none;html=1;" edge="1" parent="obPb8DVYNnawBPwpHqBk-1">
          <mxGeometry width="50" height="50" relative="1" as="geometry">
            <mxPoint x="460" y="300" as="sourcePoint" />
            <mxPoint x="600" y="300" as="targetPoint" />
          </mxGeometry>
        </mxCell>
        <mxCell id="obPb8DVYNnawBPwpHqBk-142" value="" style="endArrow=none;html=1;" edge="1" parent="obPb8DVYNnawBPwpHqBk-1">
          <mxGeometry width="50" height="50" relative="1" as="geometry">
            <mxPoint x="460" y="270" as="sourcePoint" />
            <mxPoint x="460" y="300" as="targetPoint" />
          </mxGeometry>
        </mxCell>
        <mxCell id="obPb8DVYNnawBPwpHqBk-143" value="" style="endArrow=none;html=1;entryX=0;entryY=0.5;entryDx=0;entryDy=0;" edge="1" parent="obPb8DVYNnawBPwpHqBk-1" target="obPb8DVYNnawBPwpHqBk-27">
          <mxGeometry width="50" height="50" relative="1" as="geometry">
            <mxPoint x="170" y="220" as="sourcePoint" />
            <mxPoint x="160" y="250" as="targetPoint" />
          </mxGeometry>
        </mxCell>
        <mxCell id="obPb8DVYNnawBPwpHqBk-144" value="" style="endArrow=none;html=1;" edge="1" parent="obPb8DVYNnawBPwpHqBk-1">
          <mxGeometry width="50" height="50" relative="1" as="geometry">
            <mxPoint x="170" y="270" as="sourcePoint" />
            <mxPoint x="460" y="270" as="targetPoint" />
          </mxGeometry>
        </mxCell>
        <mxCell id="obPb8DVYNnawBPwpHqBk-145" value="" style="endArrow=none;html=1;" edge="1" parent="obPb8DVYNnawBPwpHqBk-1">
          <mxGeometry width="50" height="50" relative="1" as="geometry">
            <mxPoint x="170" y="270" as="sourcePoint" />
            <mxPoint x="170" y="220" as="targetPoint" />
          </mxGeometry>
        </mxCell>
        <mxCell id="obPb8DVYNnawBPwpHqBk-146" value="" style="endArrow=classic;html=1;entryX=0.5;entryY=1;entryDx=0;entryDy=0;" edge="1" parent="obPb8DVYNnawBPwpHqBk-1" target="obPb8DVYNnawBPwpHqBk-37">
          <mxGeometry width="50" height="50" relative="1" as="geometry">
            <mxPoint x="600" y="380" as="sourcePoint" />
            <mxPoint x="30" y="420" as="targetPoint" />
          </mxGeometry>
        </mxCell>
        <mxCell id="obPb8DVYNnawBPwpHqBk-147" value="" style="endArrow=classic;html=1;entryX=0.5;entryY=0;entryDx=0;entryDy=0;" edge="1" parent="obPb8DVYNnawBPwpHqBk-1" target="obPb8DVYNnawBPwpHqBk-37">
          <mxGeometry width="50" height="50" relative="1" as="geometry">
            <mxPoint x="599" y="300" as="sourcePoint" />
            <mxPoint x="70" y="440" as="targetPoint" />
          </mxGeometry>
        </mxCell>
        <mxCell id="obPb8DVYNnawBPwpHqBk-148" value="" style="endArrow=none;html=1;entryX=1;entryY=0.5;entryDx=0;entryDy=0;" edge="1" parent="obPb8DVYNnawBPwpHqBk-1" target="obPb8DVYNnawBPwpHqBk-32">
          <mxGeometry width="50" height="50" relative="1" as="geometry">
            <mxPoint x="360" y="340" as="sourcePoint" />
            <mxPoint x="10" y="420" as="targetPoint" />
          </mxGeometry>
        </mxCell>
        <mxCell id="obPb8DVYNnawBPwpHqBk-149" value="" style="endArrow=none;html=1;" edge="1" parent="obPb8DVYNnawBPwpHqBk-1">
          <mxGeometry width="50" height="50" relative="1" as="geometry">
            <mxPoint x="360" y="380" as="sourcePoint" />
            <mxPoint x="360" y="340" as="targetPoint" />
          </mxGeometry>
        </mxCell>
        <mxCell id="obPb8DVYNnawBPwpHqBk-150" value="" style="endArrow=none;html=1;" edge="1" parent="obPb8DVYNnawBPwpHqBk-1">
          <mxGeometry width="50" height="50" relative="1" as="geometry">
            <mxPoint x="600" y="380" as="sourcePoint" />
            <mxPoint x="360" y="380" as="targetPoint" />
          </mxGeometry>
        </mxCell>
      </root>
    </mxGraphModel>
  </diagram>
</mxfile>
